{
    "asset" : {
        "generator" : "Khronos glTF Blender I/O v0.9.36",
        "version" : "2.0"
    },
    "scene" : 0,
    "scenes" : [
        {
            "name" : "Scene",
            "nodes" : [
                0,
                1,
                2,
                3,
                4,
                5,
                6,
                7,
                8,
                9,
                10,
                11,
                12,
                13
            ]
        }
    ],
    "nodes" : [
        {
            "name" : "Empty",
            "rotation" : [
                -0.35056787729263306,
                0.00034743690048344433,
                -0.9365371465682983,
                -0.0004400481120683253
            ],
            "translation" : [
                30.936996459960938,
                7.528289794921875,
                65.2221908569336
            ]
        },
        {
            "mesh" : 0,
            "name" : "Circle",
            "scale" : [
                8.241990089416504,
                8.241990089416504,
                8.241990089416504
            ],
            "translation" : [
                6,
                1,
                -3
            ]
        },
        {
            "mesh" : 1,
            "name" : "Circle.001",
            "scale" : [
                62.81184387207031,
                8.326666831970215,
                61.709293365478516
            ],
            "translation" : [
                6,
                1,
                -3
            ]
        },
        {
            "mesh" : 2,
            "name" : "Circle.002",
            "scale" : [
                19.646032333374023,
                8.443183898925781,
                19.646032333374023
            ],
            "translation" : [
                6,
                1,
                -4
            ]
        },
        {
            "mesh" : 3,
            "name" : "\u043f\u0456\u0434\u043b\u043e\u0433\u0430",
            "scale" : [
                96.2094497680664,
                96.2094497680664,
                96.2094497680664
            ],
            "translation" : [
                0.11422900855541229,
                0.05905380845069885,
                -0.013643141835927963
            ]
        },
        {
            "mesh" : 4,
            "name" : "Circle.003",
            "scale" : [
                1.7869844436645508,
                1.0192309617996216,
                1.7869844436645508
            ],
            "translation" : [
                0,
                0.03870594501495361,
                0
            ]
        },
        {
            "mesh" : 5,
            "name" : "\u0441\u043f\u0430\u0443\u043d",
            "scale" : [
                3.0076770782470703,
                1.0407052040100098,
                3.0174763202667236
            ],
            "translation" : [
                0.0007399655878543854,
                0.001748751848936081,
                0
            ]
        },
        {
            "mesh" : 6,
            "name" : "\u043a\u0440\u0443\u0433 1",
            "scale" : [
                6.012626647949219,
                1.048095941543579,
                6.025283336639404
            ]
        },
        {
            "mesh" : 7,
            "name" : "\u0441\u043f\u0430\u0443\u043d\u0422\u0415\u0421\u0422",
            "scale" : [
                3.0076770782470703,
                1.0407052040100098,
                3.0174763202667236
            ],
            "translation" : [
                0.0007399655878543854,
                0.001748751848936081,
                0
            ]
        },
        {
            "mesh" : 8,
            "name" : "\u0441\u043f\u0430\u0443\u043d\u0422\u0415\u0421\u04222",
            "scale" : [
                3.0076770782470703,
                1.0407052040100098,
                3.0174763202667236
            ],
            "translation" : [
                0.0007399655878543854,
                0.001748751848936081,
                0
            ]
        },
        {
            "mesh" : 9,
            "name" : "\u043a\u0440\u0443\u0433 1 \u0422\u0415\u0421\u0422",
            "scale" : [
                6.012626647949219,
                1.048095941543579,
                6.025283336639404
            ]
        },
        {
            "mesh" : 10,
            "name" : "\u043f\u0456\u0434\u043b\u043e\u0433\u0430.001",
            "scale" : [
                96.2094497680664,
                96.2094497680664,
                96.2094497680664
            ],
            "translation" : [
                0.11422900855541229,
                0.05905380845069885,
                -0.013643141835927963
            ]
        },
        {
            "name" : "Light",
            "rotation" : [
                0.16907575726509094,
                0.7558803558349609,
                -0.27217137813568115,
                0.570947527885437
            ],
            "scale" : [
                1.1177778244018555,
                1.1177778244018555,
                1.117777943611145
            ],
            "translation" : [
                6.245481491088867,
                6.928204536437988,
                10.025800704956055
            ]
        },
        {
            "name" : "Camera",
            "rotation" : [
                0.39176589250564575,
                0.47200891375541687,
                -0.24641574919223785,
                0.7503374814987183
            ],
            "scale" : [
                1.1177778244018555,
                1.1177778244018555,
                1.1177778244018555
            ],
            "translation" : [
                25.006139755249023,
                18.578927993774414,
                14.621779441833496
            ]
        }
    ],
    "meshes" : [
        {
            "name" : "Circle",
            "primitives" : [
                {
                    "attributes" : {
                        "POSITION" : 0,
                        "NORMAL" : 1,
                        "TEXCOORD_0" : 2
                    },
                    "indices" : 3
                }
            ]
        },
        {
            "name" : "Circle.001",
            "primitives" : [
                {
                    "attributes" : {
                        "POSITION" : 4,
                        "NORMAL" : 5,
                        "TEXCOORD_0" : 6
                    },
                    "indices" : 7
                }
            ]
        },
        {
            "name" : "Circle.002",
            "primitives" : [
                {
                    "attributes" : {
                        "POSITION" : 8,
                        "NORMAL" : 9,
                        "TEXCOORD_0" : 10
                    },
                    "indices" : 11
                }
            ]
        },
        {
            "name" : "Grid",
            "primitives" : [
                {
                    "attributes" : {
                        "POSITION" : 12,
                        "NORMAL" : 13,
                        "TEXCOORD_0" : 14
                    },
                    "indices" : 15
                }
            ]
        },
        {
            "name" : "Circle.003",
            "primitives" : [
                {
                    "attributes" : {
                        "POSITION" : 16,
                        "NORMAL" : 17,
                        "TEXCOORD_0" : 18
                    },
                    "indices" : 19
                }
            ]
        },
        {
            "name" : "Circle.004",
            "primitives" : [
                {
                    "attributes" : {
                        "POSITION" : 20,
                        "NORMAL" : 21,
                        "TEXCOORD_0" : 22
                    },
                    "indices" : 23
                }
            ]
        },
        {
            "name" : "Circle.005",
            "primitives" : [
                {
                    "attributes" : {
                        "POSITION" : 24,
                        "NORMAL" : 25,
                        "TEXCOORD_0" : 26
                    },
                    "indices" : 27
                }
            ]
        },
        {
            "name" : "Circle.007",
            "primitives" : [
                {
                    "attributes" : {
                        "POSITION" : 28,
                        "NORMAL" : 29,
                        "TEXCOORD_0" : 30
                    },
                    "indices" : 31
                }
            ]
        },
        {
            "name" : "Circle.008",
            "primitives" : [
                {
                    "attributes" : {
                        "POSITION" : 32,
                        "NORMAL" : 33,
                        "TEXCOORD_0" : 34
                    },
                    "indices" : 35
                }
            ]
        },
        {
            "name" : "Circle.009",
            "primitives" : [
                {
                    "attributes" : {
                        "POSITION" : 36,
                        "NORMAL" : 37,
                        "TEXCOORD_0" : 38
                    },
                    "indices" : 39
                }
            ]
        },
        {
            "name" : "Grid.001",
            "primitives" : [
                {
                    "attributes" : {
                        "POSITION" : 40,
                        "NORMAL" : 41,
                        "TEXCOORD_0" : 42
                    },
                    "indices" : 15
                }
            ]
        }
    ],
    "accessors" : [
        {
            "bufferView" : 0,
            "componentType" : 5126,
            "count" : 378,
            "max" : [
                1.2999908924102783,
                1.4403718709945679,
                1.2999908924102783
            ],
            "min" : [
                -1.2999999523162842,
                0,
                -1.2999999523162842
            ],
            "type" : "VEC3"
        },
        {
            "bufferView" : 1,
            "componentType" : 5126,
            "count" : 378,
            "type" : "VEC3"
        },
        {
            "bufferView" : 2,
            "componentType" : 5126,
            "count" : 378,
            "type" : "VEC2"
        },
        {
            "bufferView" : 3,
            "componentType" : 5123,
            "count" : 738,
            "type" : "SCALAR"
        },
        {
            "bufferView" : 4,
            "componentType" : 5126,
            "count" : 120,
            "max" : [
                1,
                1.4386203289031982,
                1
            ],
            "min" : [
                -0.9807853102684021,
                0,
                -1
            ],
            "type" : "VEC3"
        },
        {
            "bufferView" : 5,
            "componentType" : 5126,
            "count" : 120,
            "type" : "VEC3"
        },
        {
            "bufferView" : 6,
            "componentType" : 5126,
            "count" : 120,
            "type" : "VEC2"
        },
        {
            "bufferView" : 7,
            "componentType" : 5123,
            "count" : 180,
            "type" : "SCALAR"
        },
        {
            "bufferView" : 8,
            "componentType" : 5126,
            "count" : 1388,
            "max" : [
                1.093595266342163,
                1.4386204481124878,
                1.093595266342163
            ],
            "min" : [
                -1.093595266342163,
                0,
                -1.093595266342163
            ],
            "type" : "VEC3"
        },
        {
            "bufferView" : 9,
            "componentType" : 5126,
            "count" : 1388,
            "type" : "VEC3"
        },
        {
            "bufferView" : 10,
            "componentType" : 5126,
            "count" : 1388,
            "type" : "VEC2"
        },
        {
            "bufferView" : 11,
            "componentType" : 5123,
            "count" : 2304,
            "type" : "SCALAR"
        },
        {
            "bufferView" : 12,
            "componentType" : 5126,
            "count" : 192,
            "max" : [
                1,
                0,
                1
            ],
            "min" : [
                -1,
                0,
                -1
            ],
            "type" : "VEC3"
        },
        {
            "bufferView" : 13,
            "componentType" : 5126,
            "count" : 192,
            "type" : "VEC3"
        },
        {
            "bufferView" : 14,
            "componentType" : 5126,
            "count" : 192,
            "type" : "VEC2"
        },
        {
            "bufferView" : 15,
            "componentType" : 5123,
            "count" : 486,
            "type" : "SCALAR"
        },
        {
            "bufferView" : 16,
            "componentType" : 5126,
            "count" : 412,
            "max" : [
                1.1199963092803955,
                1.9242799282073975,
                1.1199963092803955
            ],
            "min" : [
                -1.1199963092803955,
                0,
                -1.1200000047683716
            ],
            "type" : "VEC3"
        },
        {
            "bufferView" : 17,
            "componentType" : 5126,
            "count" : 412,
            "type" : "VEC3"
        },
        {
            "bufferView" : 18,
            "componentType" : 5126,
            "count" : 412,
            "type" : "VEC2"
        },
        {
            "bufferView" : 19,
            "componentType" : 5123,
            "count" : 768,
            "type" : "SCALAR"
        },
        {
            "bufferView" : 20,
            "componentType" : 5126,
            "count" : 400,
            "max" : [
                1,
                2.883983612060547,
                1
            ],
            "min" : [
                -1,
                0,
                -1
            ],
            "type" : "VEC3"
        },
        {
            "bufferView" : 21,
            "componentType" : 5126,
            "count" : 400,
            "type" : "VEC3"
        },
        {
            "bufferView" : 22,
            "componentType" : 5126,
            "count" : 400,
            "type" : "VEC2"
        },
        {
            "bufferView" : 23,
            "componentType" : 5123,
            "count" : 600,
            "type" : "SCALAR"
        },
        {
            "bufferView" : 24,
            "componentType" : 5126,
            "count" : 6128,
            "max" : [
                0.9914621114730835,
                2.883984088897705,
                0.9993423819541931
            ],
            "min" : [
                -0.9993423819541931,
                0,
                -0.9993423819541931
            ],
            "type" : "VEC3"
        },
        {
            "bufferView" : 25,
            "componentType" : 5126,
            "count" : 6128,
            "type" : "VEC3"
        },
        {
            "bufferView" : 26,
            "componentType" : 5126,
            "count" : 6128,
            "type" : "VEC2"
        },
        {
            "bufferView" : 27,
            "componentType" : 5123,
            "count" : 9192,
            "type" : "SCALAR"
        },
        {
            "bufferView" : 28,
            "componentType" : 5126,
            "count" : 53878,
            "max" : [
                1.0974524021148682,
                2.883984088897705,
                1.0890600681304932
            ],
            "min" : [
                -1.0974524021148682,
                0,
                -1.0974504947662354
            ],
            "type" : "VEC3"
        },
        {
            "bufferView" : 29,
            "componentType" : 5126,
            "count" : 53878,
            "type" : "VEC3"
        },
        {
            "bufferView" : 30,
            "componentType" : 5126,
            "count" : 53878,
            "type" : "VEC2"
        },
        {
            "bufferView" : 31,
            "componentType" : 5123,
            "count" : 83040,
            "type" : "SCALAR"
        },
        {
            "bufferView" : 32,
            "componentType" : 5126,
            "count" : 23014,
            "max" : [
                0.9993423819541931,
                2.883984088897705,
                0.951056957244873
            ],
            "min" : [
                -0.9993423819541931,
                0,
                -0.9993423819541931
            ],
            "type" : "VEC3"
        },
        {
            "bufferView" : 33,
            "componentType" : 5126,
            "count" : 23014,
            "type" : "VEC3"
        },
        {
            "bufferView" : 34,
            "componentType" : 5126,
            "count" : 23014,
            "type" : "VEC2"
        },
        {
            "bufferView" : 35,
            "componentType" : 5123,
            "count" : 34560,
            "type" : "SCALAR"
        },
        {
            "bufferView" : 36,
            "componentType" : 5126,
            "count" : 6400,
            "max" : [
                0.9993423819541931,
                2.883984088897705,
                0.9993423819541931
            ],
            "min" : [
                -0.9993423819541931,
                0,
                -0.9993423819541931
            ],
            "type" : "VEC3"
        },
        {
            "bufferView" : 37,
            "componentType" : 5126,
            "count" : 6400,
            "type" : "VEC3"
        },
        {
            "bufferView" : 38,
            "componentType" : 5126,
            "count" : 6400,
            "type" : "VEC2"
        },
        {
            "bufferView" : 39,
            "componentType" : 5123,
            "count" : 9600,
            "type" : "SCALAR"
        },
        {
            "bufferView" : 40,
            "componentType" : 5126,
            "count" : 192,
            "max" : [
                1,
                0,
                1
            ],
            "min" : [
                -1,
                0,
                -1
            ],
            "type" : "VEC3"
        },
        {
            "bufferView" : 41,
            "componentType" : 5126,
            "count" : 192,
            "type" : "VEC3"
        },
        {
            "bufferView" : 42,
            "componentType" : 5126,
            "count" : 192,
            "type" : "VEC2"
        }
    ],
    "bufferViews" : [
        {
            "buffer" : 0,
            "byteLength" : 4536,
            "byteOffset" : 0
        },
        {
            "buffer" : 0,
            "byteLength" : 4536,
            "byteOffset" : 4536
        },
        {
            "buffer" : 0,
            "byteLength" : 3024,
            "byteOffset" : 9072
        },
        {
            "buffer" : 0,
            "byteLength" : 1476,
            "byteOffset" : 12096
        },
        {
            "buffer" : 0,
            "byteLength" : 1440,
            "byteOffset" : 13572
        },
        {
            "buffer" : 0,
            "byteLength" : 1440,
            "byteOffset" : 15012
        },
        {
            "buffer" : 0,
            "byteLength" : 960,
            "byteOffset" : 16452
        },
        {
            "buffer" : 0,
            "byteLength" : 360,
            "byteOffset" : 17412
        },
        {
            "buffer" : 0,
            "byteLength" : 16656,
            "byteOffset" : 17772
        },
        {
            "buffer" : 0,
            "byteLength" : 16656,
            "byteOffset" : 34428
        },
        {
            "buffer" : 0,
            "byteLength" : 11104,
            "byteOffset" : 51084
        },
        {
            "buffer" : 0,
            "byteLength" : 4608,
            "byteOffset" : 62188
        },
        {
            "buffer" : 0,
            "byteLength" : 2304,
            "byteOffset" : 66796
        },
        {
            "buffer" : 0,
            "byteLength" : 2304,
            "byteOffset" : 69100
        },
        {
            "buffer" : 0,
            "byteLength" : 1536,
            "byteOffset" : 71404
        },
        {
            "buffer" : 0,
            "byteLength" : 972,
            "byteOffset" : 72940
        },
        {
            "buffer" : 0,
            "byteLength" : 4944,
            "byteOffset" : 73912
        },
        {
            "buffer" : 0,
            "byteLength" : 4944,
            "byteOffset" : 78856
        },
        {
            "buffer" : 0,
            "byteLength" : 3296,
            "byteOffset" : 83800
        },
        {
            "buffer" : 0,
            "byteLength" : 1536,
            "byteOffset" : 87096
        },
        {
            "buffer" : 0,
            "byteLength" : 4800,
            "byteOffset" : 88632
        },
        {
            "buffer" : 0,
            "byteLength" : 4800,
            "byteOffset" : 93432
        },
        {
            "buffer" : 0,
            "byteLength" : 3200,
            "byteOffset" : 98232
        },
        {
            "buffer" : 0,
            "byteLength" : 1200,
            "byteOffset" : 101432
        },
        {
            "buffer" : 0,
            "byteLength" : 73536,
            "byteOffset" : 102632
        },
        {
            "buffer" : 0,
            "byteLength" : 73536,
            "byteOffset" : 176168
        },
        {
            "buffer" : 0,
            "byteLength" : 49024,
            "byteOffset" : 249704
        },
        {
            "buffer" : 0,
            "byteLength" : 18384,
            "byteOffset" : 298728
        },
        {
            "buffer" : 0,
            "byteLength" : 646536,
            "byteOffset" : 317112
        },
        {
            "buffer" : 0,
            "byteLength" : 646536,
            "byteOffset" : 963648
        },
        {
            "buffer" : 0,
            "byteLength" : 431024,
            "byteOffset" : 1610184
        },
        {
            "buffer" : 0,
            "byteLength" : 166080,
            "byteOffset" : 2041208
        },
        {
            "buffer" : 0,
            "byteLength" : 276168,
            "byteOffset" : 2207288
        },
        {
            "buffer" : 0,
            "byteLength" : 276168,
            "byteOffset" : 2483456
        },
        {
            "buffer" : 0,
            "byteLength" : 184112,
            "byteOffset" : 2759624
        },
        {
            "buffer" : 0,
            "byteLength" : 69120,
            "byteOffset" : 2943736
        },
        {
            "buffer" : 0,
            "byteLength" : 76800,
            "byteOffset" : 3012856
        },
        {
            "buffer" : 0,
            "byteLength" : 76800,
            "byteOffset" : 3089656
        },
        {
            "buffer" : 0,
            "byteLength" : 51200,
            "byteOffset" : 3166456
        },
        {
            "buffer" : 0,
            "byteLength" : 19200,
            "byteOffset" : 3217656
        },
        {
            "buffer" : 0,
            "byteLength" : 2304,
            "byteOffset" : 3236856
        },
        {
            "buffer" : 0,
            "byteLength" : 2304,
            "byteOffset" : 3239160
        },
        {
            "buffer" : 0,
            "byteLength" : 1536,
            "byteOffset" : 3241464
        }
    ],
    "buffers" : [
        {
            "byteLength" : 3243000,
            "uri" : "map1.bin"
        }
    ]
}
