{
    "asset" : {
        "generator" : "Khronos glTF Blender I/O v0.9.36",
        "version" : "2.0"
    },
    "scene" : 0,
    "scenes" : [
        {
            "name" : "Scene",
            "nodes" : [
                0,
                1,
                2,
                3,
                4
            ]
        }
    ],
    "nodes" : [
        {
            "mesh" : 0,
            "name" : "\u043f\u0456\u0434\u043b\u043e\u0433\u0430",
            "scale" : [
                96.2094497680664,
                96.2094497680664,
                96.2094497680664
            ],
            "translation" : [
                0.11422900855541229,
                0.05905380845069885,
                -0.013643141835927963
            ]
        },
        {
            "mesh" : 1,
            "name" : "\u0441\u043f\u0430\u0443\u043d\u0422\u0415\u0421\u04222.001",
            "scale" : [
                3.0076770782470703,
                1.0407052040100098,
                3.0174763202667236
            ],
            "translation" : [
                0.0007399655878543854,
                0.001748751848936081,
                0
            ]
        },
        {
            "mesh" : 2,
            "name" : "\u043a\u0440\u0443\u0433 1.001",
            "scale" : [
                6.012626647949219,
                1.048095941543579,
                6.025283336639404
            ]
        },
        {
            "name" : "Light",
            "rotation" : [
                0.16907575726509094,
                0.7558803558349609,
                -0.27217137813568115,
                0.570947527885437
            ],
            "scale" : [
                1.1177778244018555,
                1.1177778244018555,
                1.117777943611145
            ],
            "translation" : [
                6.245481491088867,
                6.928204536437988,
                10.025800704956055
            ]
        },
        {
            "name" : "Camera",
            "rotation" : [
                0.39176589250564575,
                0.47200891375541687,
                -0.24641574919223785,
                0.7503374814987183
            ],
            "scale" : [
                1.1177778244018555,
                1.1177778244018555,
                1.1177778244018555
            ],
            "translation" : [
                25.006139755249023,
                18.578927993774414,
                14.621779441833496
            ]
        }
    ],
    "materials" : [
        {
            "doubleSided" : true,
            "name" : "Material.011",
            "pbrMetallicRoughness" : {}
        },
        {
            "doubleSided" : true,
            "name" : "Material.004",
            "pbrMetallicRoughness" : {}
        },
        {
            "doubleSided" : true,
            "name" : "Material.010",
            "pbrMetallicRoughness" : {}
        }
    ],
    "meshes" : [
        {
            "name" : "Grid",
            "primitives" : [
                {
                    "attributes" : {
                        "POSITION" : 0,
                        "NORMAL" : 1,
                        "TEXCOORD_0" : 2
                    },
                    "indices" : 3,
                    "material" : 0
                }
            ]
        },
        {
            "name" : "Circle.006",
            "primitives" : [
                {
                    "attributes" : {
                        "POSITION" : 4,
                        "NORMAL" : 5,
                        "TEXCOORD_0" : 6
                    },
                    "indices" : 7,
                    "material" : 1
                }
            ]
        },
        {
            "name" : "Circle.010",
            "primitives" : [
                {
                    "attributes" : {
                        "POSITION" : 8,
                        "NORMAL" : 9,
                        "TEXCOORD_0" : 10
                    },
                    "indices" : 11,
                    "material" : 2
                }
            ]
        }
    ],
    "accessors" : [
        {
            "bufferView" : 0,
            "componentType" : 5126,
            "count" : 192,
            "max" : [
                1,
                0,
                1
            ],
            "min" : [
                -1,
                0,
                -1
            ],
            "type" : "VEC3"
        },
        {
            "bufferView" : 1,
            "componentType" : 5126,
            "count" : 192,
            "type" : "VEC3"
        },
        {
            "bufferView" : 2,
            "componentType" : 5126,
            "count" : 192,
            "type" : "VEC2"
        },
        {
            "bufferView" : 3,
            "componentType" : 5123,
            "count" : 486,
            "type" : "SCALAR"
        },
        {
            "bufferView" : 4,
            "componentType" : 5126,
            "count" : 50510,
            "max" : [
                1.0974524021148682,
                2.883984088897705,
                1.04340660572052
            ],
            "min" : [
                -1.0974524021148682,
                0,
                -1.0974504947662354
            ],
            "type" : "VEC3"
        },
        {
            "bufferView" : 5,
            "componentType" : 5126,
            "count" : 50510,
            "type" : "VEC3"
        },
        {
            "bufferView" : 6,
            "componentType" : 5126,
            "count" : 50510,
            "type" : "VEC2"
        },
        {
            "bufferView" : 7,
            "componentType" : 5123,
            "count" : 77856,
            "type" : "SCALAR"
        },
        {
            "bufferView" : 8,
            "componentType" : 5126,
            "count" : 14880,
            "max" : [
                1.0410165786743164,
                2.883984088897705,
                1.049342393875122
            ],
            "min" : [
                -1.049342393875122,
                0,
                -1.049342393875122
            ],
            "type" : "VEC3"
        },
        {
            "bufferView" : 9,
            "componentType" : 5126,
            "count" : 14880,
            "type" : "VEC3"
        },
        {
            "bufferView" : 10,
            "componentType" : 5126,
            "count" : 14880,
            "type" : "VEC2"
        },
        {
            "bufferView" : 11,
            "componentType" : 5123,
            "count" : 23028,
            "type" : "SCALAR"
        }
    ],
    "bufferViews" : [
        {
            "buffer" : 0,
            "byteLength" : 2304,
            "byteOffset" : 0
        },
        {
            "buffer" : 0,
            "byteLength" : 2304,
            "byteOffset" : 2304
        },
        {
            "buffer" : 0,
            "byteLength" : 1536,
            "byteOffset" : 4608
        },
        {
            "buffer" : 0,
            "byteLength" : 972,
            "byteOffset" : 6144
        },
        {
            "buffer" : 0,
            "byteLength" : 606120,
            "byteOffset" : 7116
        },
        {
            "buffer" : 0,
            "byteLength" : 606120,
            "byteOffset" : 613236
        },
        {
            "buffer" : 0,
            "byteLength" : 404080,
            "byteOffset" : 1219356
        },
        {
            "buffer" : 0,
            "byteLength" : 155712,
            "byteOffset" : 1623436
        },
        {
            "buffer" : 0,
            "byteLength" : 178560,
            "byteOffset" : 1779148
        },
        {
            "buffer" : 0,
            "byteLength" : 178560,
            "byteOffset" : 1957708
        },
        {
            "buffer" : 0,
            "byteLength" : 119040,
            "byteOffset" : 2136268
        },
        {
            "buffer" : 0,
            "byteLength" : 46056,
            "byteOffset" : 2255308
        }
    ],
    "buffers" : [
        {
            "byteLength" : 2301364,
            "uri" : "data:application/octet-stream;base64,"
        }
    ]
}
